<?xml version="1.0" encoding="UTF-8" standalone="no"?>
<svg xmlns="http://www.w3.org/2000/svg" width="48" height="48" viewBox="0 0 48 48">
  <!-- 背景圆形 -->
  <circle cx="24" cy="24" r="22" fill="#3498db" />
  
  <!-- 键盘图标 -->
  <g fill="#ffffff">
    <!-- 键盘外框 -->
    <rect x="12" y="16" width="24" height="16" rx="2" ry="2" />
    
    <!-- 键盘按键 -->
    <rect x="14" y="18" width="4" height="3" rx="1" ry="1" />
    <rect x="20" y="18" width="4" height="3" rx="1" ry="1" />
    <rect x="26" y="18" width="4" height="3" rx="1" ry="1" />
    <rect x="32" y="18" width="4" height="3" rx="1" ry="1" />
    
    <rect x="14" y="23" width="4" height="3" rx="1" ry="1" />
    <rect x="20" y="23" width="4" height="3" rx="1" ry="1" />
    <rect x="26" y="23" width="4" height="3" rx="1" ry="1" />
    <rect x="32" y="23" width="4" height="3" rx="1" ry="1" />
    
    <rect x="17" y="28" width="14" height="2" rx="1" ry="1" />
  </g>
</svg>